<?xml version="1.0" encoding="UTF-8"?>
<svg version="1.1" xmlns="http://www.w3.org/2000/svg" width="503" height="523">
<path d="M0 0 C1.828125 0.20703125 1.828125 0.20703125 4 1 C5.421875 3.01171875 5.421875 3.01171875 6.75 5.6875 C8.95655805 9.97437025 11.21864036 14.19632154 13.625 18.375 C14.30753518 19.56366229 14.98981382 20.75247191 15.671875 21.94140625 C16.03990234 22.58223145 16.40792969 23.22305664 16.78710938 23.88330078 C18.13833839 26.24142389 19.48358559 28.60290019 20.828125 30.96484375 C25.99050098 40.0287042 31.19114732 49.06591967 36.49609375 58.04711914 C40.00672809 63.99530203 43.44246093 69.9842872 46.85595703 75.98876953 C53.20771474 87.15517585 59.58417165 98.30777905 66 109.4375 C66.44448486 110.21182373 66.88896973 110.98614746 67.34692383 111.78393555 C67.76868896 112.51394775 68.1904541 113.24395996 68.625 113.99609375 C69.22054687 115.03032471 69.22054687 115.03032471 69.828125 116.08544922 C71.11919133 118.26286911 71.11919133 118.26286911 73.375 121.16015625 C75 124 75 124 74.98046875 126.98828125 C73.84914732 130.46337615 72.30895704 133.12626588 70.3125 136.1875 C67.78206531 140.1431995 65.33435255 144.1035074 63.125 148.25 C60.15071391 153.80146042 56.97148664 159.22048414 53.75805664 164.63574219 C51.77357721 167.98015934 49.80279532 171.32743583 47.90625 174.72265625 C47.2978125 175.80417969 46.689375 176.88570312 46.0625 178 C45.27552734 179.423125 45.27552734 179.423125 44.47265625 180.875 C43 183 43 183 40 184 C38.01171875 183.328125 38.01171875 183.328125 35.6875 182.25 C12.54605081 172.45808372 -13.95840806 174.38240691 -36.98828125 183.26953125 C-60.70060829 193.07938152 -78.01258437 212.82607468 -88 236 C-96.85050824 259.97934575 -96.78935757 286.45822776 -86.625 310.0625 C-85.77682359 311.72231599 -84.90147272 313.36851623 -84 315 C-83.52175781 315.93328125 -83.04351562 316.8665625 -82.55078125 317.828125 C-78.38286185 325.53827129 -71.15592265 337.92203867 -63 342 C-63 342.66 -63 343.32 -63 344 C-62.443125 344.2475 -61.88625 344.495 -61.3125 344.75 C-58.60028873 346.21606015 -56.36412635 348.02989471 -54 350 C-55.47963438 353.99501282 -57.36876024 357.56400336 -59.5 361.25 C-60.01796143 362.1476709 -60.01796143 362.1476709 -60.54638672 363.06347656 C-61.69267118 365.04522311 -62.84527692 367.02315919 -64 369 C-64.41411133 369.70898438 -64.82822266 370.41796875 -65.25488281 371.1484375 C-69.21304191 377.91493306 -73.18547694 384.67172898 -77.25 391.375 C-80.30081106 396.50590951 -83.14154233 401.75949427 -86 407 C-134.51 407 -183.02 407 -233 407 C-232.11652702 402.58263511 -231.34158843 400.48081583 -229.12109375 396.75390625 C-228.53376465 395.75915283 -227.94643555 394.76439941 -227.34130859 393.73950195 C-226.71305176 392.69109131 -226.08479492 391.64268066 -225.4375 390.5625 C-224.14672779 388.38044941 -222.85636032 386.19815935 -221.56640625 384.015625 C-220.94523926 382.96955078 -220.32407227 381.92347656 -219.68408203 380.84570312 C-217.71520971 377.51877129 -215.78643532 374.17273025 -213.875 370.8125 C-213.27171875 369.75289063 -212.6684375 368.69328125 -212.046875 367.6015625 C-211.72912109 367.04243164 -211.41136719 366.48330078 -211.08398438 365.90722656 C-202.68689494 351.13288813 -194.26569292 336.37465832 -185.484375 321.82421875 C-185.07727295 321.1492334 -184.6701709 320.47424805 -184.25073242 319.77880859 C-183.48761827 318.51599344 -182.72233884 317.25448281 -181.9543457 315.99462891 C-180.35758672 313.35663522 -178.85958327 310.71808085 -177.484375 307.95703125 C-175.89556788 304.79196021 -174.08629014 301.86362827 -172.1875 298.875 C-168.9500874 293.71553651 -166.12310684 288.46313563 -163.51953125 282.94921875 C-161.94273475 279.88885537 -160.17489463 277.03105157 -158.33178711 274.12670898 C-156.0834004 270.53629714 -153.98615485 266.8597119 -151.875 263.1875 C-150.9024026 261.50126814 -149.92974467 259.81507119 -148.95703125 258.12890625 C-148.46541504 257.27570801 -147.97379883 256.42250977 -147.46728516 255.54345703 C-146.06888018 253.11939995 -144.66634413 250.69780069 -143.26171875 248.27734375 C-138.45539374 239.9943248 -133.67906462 231.69527548 -128.9375 223.375 C-124.85024896 216.20407283 -120.70728303 209.06950617 -116.50976562 201.96264648 C-111.40854243 193.31879272 -106.4512467 184.59497575 -101.5456543 175.83886719 C-98.35043606 170.13745171 -95.12155832 164.47234036 -91.7265625 158.88671875 C-88.77246521 153.94762849 -85.91492956 148.95230816 -83.03881836 143.9675293 C-80.62464725 139.78872686 -78.19292984 135.62503489 -75.6875 131.5 C-73.79902592 128.38347197 -72.01989129 125.22823151 -70.29296875 122.01953125 C-66.84711642 115.67755607 -63.24528169 109.43109421 -59.625 103.1875 C-58.28721129 100.87531728 -56.95032113 98.56261592 -55.61328125 96.25 C-54.66702881 94.61417969 -54.66702881 94.61417969 -53.70166016 92.9453125 C-49.99738305 86.53377749 -46.33328422 80.09931388 -42.67041016 73.6640625 C-37.011297 63.72426548 -31.32459749 53.80474811 -25.50610352 43.95727539 C-22.33575002 38.58700665 -19.23303543 33.18179796 -16.1484375 27.76171875 C-13.51534115 23.14178554 -10.85144349 18.53969354 -8.1875 13.9375 C-7.71900635 13.12748535 -7.2505127 12.3174707 -6.76782227 11.48291016 C-4.5405686 7.63748358 -2.30218559 3.80128318 0 0 Z " fill="#0608BA" transform="translate(249,1)"/>
<path d="M0 0 C0.66 0 1.32 0 2 0 C2.69222656 1.22009766 2.69222656 1.22009766 3.3984375 2.46484375 C7.11064607 8.98688608 10.86359419 15.48031009 14.6875 21.9375 C19.35735786 29.83042491 23.8739577 37.80673136 28.3581543 45.80639648 C31.34919775 51.13050053 34.4131014 56.39878697 37.57080078 61.62573242 C39.77601044 65.28915298 41.92215276 68.98591523 44.0625 72.6875 C44.5258374 73.48784668 44.9891748 74.28819336 45.46655273 75.11279297 C49.76972642 82.56496131 53.99285573 90.06159422 58.21508789 97.55981445 C61.98899739 104.24810538 65.8409471 110.88509833 69.75415039 117.49267578 C72.10767112 121.46943146 74.39102068 125.47337934 76.609375 129.52734375 C78.60231766 133.07097493 80.68030607 136.56328774 82.75 140.0625 C86.06677993 145.67248386 89.3239141 151.30918891 92.5 157 C95.93413479 163.14990081 99.47114667 169.23142023 103.05859375 175.29296875 C106.42762706 180.99758957 109.72252721 186.74236221 113 192.5 C116.62151123 198.86077841 120.27313842 205.20034836 124 211.5 C128.31604606 218.79606894 132.53477744 226.14536098 136.72363281 233.51513672 C138.89166219 237.32658064 141.06354331 241.13245919 143.31640625 244.89453125 C143.95449219 245.96058594 144.59257812 247.02664063 145.25 248.125 C145.79140625 249.01445312 146.3328125 249.90390625 146.890625 250.8203125 C148 253 148 253 148 256 C50.65 256 -46.7 256 -147 256 C-144.75108878 249.25326633 -144.75108878 249.25326633 -142.8984375 246.1875 C-142.29261841 245.17333008 -142.29261841 245.17333008 -141.67456055 244.13867188 C-141.24570557 243.43291016 -140.81685059 242.72714844 -140.375 242 C-139.47192957 240.4900177 -138.5695964 238.97959425 -137.66796875 237.46875 C-137.21856934 236.71851563 -136.76916992 235.96828125 -136.30615234 235.1953125 C-131.3684903 226.89634856 -126.65516319 218.45986388 -122 210 C-120.9378125 210.27714844 -119.875625 210.55429687 -118.78125 210.83984375 C-117.35423263 211.20598636 -115.92714552 211.57185722 -114.5 211.9375 C-113.80390625 212.11990234 -113.1078125 212.30230469 -112.390625 212.49023438 C-87.51875807 218.82334864 -60.91714994 215.35848296 -38.67578125 202.64453125 C-16.84148284 189.22520332 -2.08635111 169.68276833 5 145 C5.70429838 141.70435907 6.21535468 138.39847761 6.6875 135.0625 C6.88182617 133.81823242 6.88182617 133.81823242 7.08007812 132.54882812 C10.63071748 108.37066492 4.27165432 83.75693363 -10 64 C-14.80383414 57.76668133 -19.67294118 51.7538442 -26 47 C-25.46622217 41.87371862 -22.93709428 38.11618844 -20.3125 33.8125 C-19.85842773 33.05437012 -19.40435547 32.29624023 -18.93652344 31.51513672 C-17.63149741 29.33900814 -16.31754837 27.16856365 -15 25 C-13.91581837 23.20884653 -12.832301 21.41729046 -11.75 19.625 C-11.29496094 18.8721875 -10.83992187 18.119375 -10.37109375 17.34375 C-8.27776891 13.76541694 -6.33330456 10.10922018 -4.39453125 6.4453125 C-3.06910594 4.12117736 -1.74822882 2.02624903 0 0 Z " fill="#FE0507" transform="translate(337,152)"/>
<path d="M0 0 C0.99 0 1.98 0 3 0 C4.98 6.27 6.96 12.54 9 19 C15.93 19 22.86 19 30 19 C28.59871552 23.20385345 25.52375898 24.67980077 22 27.0625 C17.33192557 29.90036838 17.33192557 29.90036838 14 34 C14.74555186 36.68691044 15.54856615 39.29855016 16.4375 41.9375 C19 49.625 19 49.625 19 53 C15.41421211 51.34502097 12.27241156 49.2025847 9 47 C6.34346471 45.31688829 3.67225851 43.65798483 1 42 C0.5560791 42.33322266 0.1121582 42.66644531 -0.34521484 43.00976562 C-2.35149576 44.51145718 -4.36314112 46.00579094 -6.375 47.5 C-7.07367188 48.02464844 -7.77234375 48.54929688 -8.4921875 49.08984375 C-9.1625 49.58613281 -9.8328125 50.08242187 -10.5234375 50.59375 C-11.14138184 51.05458984 -11.75932617 51.51542969 -12.39599609 51.99023438 C-14 53 -14 53 -16 53 C-15.13862587 48.0765668 -13.50531633 43.53991405 -11.83984375 38.83984375 C-10.81093715 35.85427493 -10.81093715 35.85427493 -11 32 C-12.37136457 30.58303515 -12.37136457 30.58303515 -14.28125 29.52734375 C-14.95800781 29.10259766 -15.63476562 28.67785156 -16.33203125 28.24023438 C-17.04746094 27.81033203 -17.76289063 27.38042969 -18.5 26.9375 C-19.91216511 26.08129539 -21.31877037 25.215831 -22.71875 24.33984375 C-23.34716797 23.96206787 -23.97558594 23.58429199 -24.62304688 23.19506836 C-25.07744141 22.8006958 -25.53183594 22.40632324 -26 22 C-26 21.01 -26 20.02 -26 19 C-19.07 19 -12.14 19 -5 19 C-3.26246017 12.68167334 -1.56101899 6.36415435 0 0 Z " fill="#FDC916" transform="translate(249,196)"/>
<path d="M0 0 C0.99 0 1.98 0 3 0 C3.84080019 2.41429769 4.67281402 4.83103993 5.5 7.25 C5.73847656 7.93191406 5.97695313 8.61382812 6.22265625 9.31640625 C7.39421287 12.76413003 8 15.31702904 8 19 C14.93 19 21.86 19 29 19 C29 19.99 29 20.98 29 22 C26.734375 23.71875 26.734375 23.71875 23.75 25.5 C20.37052994 27.53841051 17.11229641 29.56944471 14 32 C14.90418097 36.5953668 15.91180215 41.00675145 17.625 45.375 C19 49 19 49 19 52 C14.73970809 51.42000976 11.64838465 48.87612107 8.25 46.4375 C7.64800781 46.01275391 7.04601562 45.58800781 6.42578125 45.15039062 C4.94670286 44.10564478 3.47282741 43.05353984 2 42 C-2.77198922 44.58482749 -6.98013013 47.41594514 -11.203125 50.828125 C-13 52 -13 52 -16 52 C-15.80664062 51.39414062 -15.61328125 50.78828125 -15.4140625 50.1640625 C-13.54791973 44.15914763 -12.14107278 38.18049912 -11 32 C-11.45439453 31.67725098 -11.90878906 31.35450195 -12.37695312 31.02197266 C-14.42288345 29.56306695 -16.46146277 28.09421602 -18.5 26.625 C-19.21542969 26.11710937 -19.93085938 25.60921875 -20.66796875 25.0859375 C-21.34472656 24.59609375 -22.02148438 24.10625 -22.71875 23.6015625 C-23.34716797 23.15119629 -23.97558594 22.70083008 -24.62304688 22.23681641 C-25.07744141 21.82866699 -25.53183594 21.42051758 -26 21 C-26 20.34 -26 19.68 -26 19 C-19.07 19 -12.14 19 -5 19 C-4.67 17.35 -4.34 15.7 -4 14 C-3.3309008 11.55738485 -2.64226187 9.12006515 -1.9375 6.6875 C-1.57527344 5.43324219 -1.21304687 4.17898438 -0.83984375 2.88671875 C-0.56269531 1.93410156 -0.28554688 0.98148437 0 0 Z " fill="#FCCA18" transform="translate(290,270)"/>
<path d="M0 0 C0.99 0 1.98 0 3 0 C3.83857688 2.60258324 4.67103344 5.20685647 5.5 7.8125 C5.73847656 8.55048828 5.97695312 9.28847656 6.22265625 10.04882812 C7.19940136 13.13255196 8 15.74495809 8 19 C14.93 19 21.86 19 29 19 C29 19.99 29 20.98 29 22 C26.734375 23.71875 26.734375 23.71875 23.75 25.5 C20.37052994 27.53841051 17.11229641 29.56944471 14 32 C14.19335938 32.7734375 14.38671875 33.546875 14.5859375 34.34375 C16.79296875 43.171875 16.79296875 43.171875 19 52 C14.2404477 51.39506889 11.00881461 47.98951321 7.50976562 44.97460938 C5.809243 43.54453086 5.809243 43.54453086 3 42 C-2.2514846 42.97400023 -6.35932294 47.19749781 -10.4765625 50.41796875 C-11.72566406 51.20107422 -11.72566406 51.20107422 -13 52 C-13.99 51.67 -14.98 51.34 -16 51 C-15.62746094 49.97519531 -15.25492188 48.95039063 -14.87109375 47.89453125 C-14.39258981 46.53407887 -13.91476062 45.17338904 -13.4375 43.8125 C-13.19064453 43.13896484 -12.94378906 42.46542969 -12.68945312 41.77148438 C-10.75849954 36.35111446 -10.75849954 36.35111446 -12 31 C-14.18213026 28.99993519 -16.5805065 27.41621232 -19.0625 25.8125 C-21.42192426 24.255601 -23.71368116 22.66680019 -26 21 C-26 20.34 -26 19.68 -26 19 C-19.07 19 -12.14 19 -5 19 C-4.34 16.03 -3.68 13.06 -3 10 C-2.48312351 8.13877043 -1.94672708 6.28261922 -1.375 4.4375 C-1.11460937 3.59058594 -0.85421875 2.74367188 -0.5859375 1.87109375 C-0.39257812 1.25363281 -0.19921875 0.63617188 0 0 Z " fill="#FCC915" transform="translate(207,270)"/>
<path d="M0 0 C1.54300781 -0.03867187 1.54300781 -0.03867187 3.1171875 -0.078125 C6.5642797 0.29792142 8.36092829 1.18898486 11.125 3.25 C13.125 6.25 13.125 6.25 13.125 10.25 C9.8125 10.4375 9.8125 10.4375 6.125 10.25 C5.10480427 9.2706121 4.10350195 8.27104551 3.125 7.25 C-0.12444058 6.84381993 -2.02318824 6.65373176 -4.75 8.5625 C-6.1523501 10.32800472 -6.1523501 10.32800472 -5.875 13.25 C-2.99332319 14.05652508 -0.31468453 14.42515006 2.671875 14.56640625 C3.51621094 14.60830078 4.36054687 14.65019531 5.23046875 14.69335938 C6.53951172 14.75233398 6.53951172 14.75233398 7.875 14.8125 C8.76316406 14.85568359 9.65132812 14.89886719 10.56640625 14.94335938 C12.75245963 15.04913615 14.93862089 15.15122546 17.125 15.25 C17.125 17.23 17.125 19.21 17.125 21.25 C16.135 21.25 15.145 21.25 14.125 21.25 C14.38061323 23.5931213 14.71770772 25.92843403 15.125 28.25 C15.785 28.58 16.445 28.91 17.125 29.25 C17.125 31.56 17.125 33.87 17.125 36.25 C12.57115385 36.61923077 12.57115385 36.61923077 10.3125 34.75 C9.920625 34.255 9.52875 33.76 9.125 33.25 C8.58746094 33.73726563 8.04992187 34.22453125 7.49609375 34.7265625 C4.53188138 36.63108115 2.68746464 36.65148145 -0.8125 36.625 C-1.83214844 36.63273438 -2.85179688 36.64046875 -3.90234375 36.6484375 C-8.21730872 36.07008477 -10.83532847 34.28967153 -13.875 31.25 C-15.19492012 25.158061 -14.78779697 22.82230724 -11.875 17.25 C-12.50540043 15.89914193 -13.17751417 14.56747324 -13.875 13.25 C-14.01217209 9.11769088 -13.54082239 6.11556911 -11 2.8125 C-7.41974252 0.17995774 -4.32380927 0.0646954 0 0 Z M-6.875 23.25 C-6.86577298 25.79713404 -6.86577298 25.79713404 -5.875 28.25 C-3.38481857 30.27903672 -2.02922829 30.25944255 1.1875 30.0625 C4.20495442 29.22788495 5.44466965 28.86384721 7.125 26.25 C7.16989388 24.58393808 7.17399842 22.91594626 7.125 21.25 C5.16696493 21.19610913 3.20851091 21.15725783 1.25 21.125 C0.15945312 21.10179687 -0.93109375 21.07859375 -2.0546875 21.0546875 C-5.0121051 20.94939466 -5.0121051 20.94939466 -6.875 23.25 Z " fill="#2F2F2F" transform="translate(96.875,476.75)"/>
<path d="M0 0 C2.97 -0.0825 5.94 -0.165 9 -0.25 C10.37865234 -0.30462402 10.37865234 -0.30462402 11.78515625 -0.36035156 C17.69312367 -0.43888801 22.08332223 0.64568589 27 4 C32.1032785 9.36498509 32.29230406 13.91582646 32.21484375 21.05078125 C31.84746441 26.09389764 30.23925986 28.82596434 26.625 32.25 C20.7935253 36.1376498 16.00414451 36.25614511 9.1875 36.125 C6.155625 36.08375 3.12375 36.0425 0 36 C0 24.12 0 12.24 0 0 Z M8 7 C8 14.26 8 21.52 8 29 C17.35227792 29.23271209 17.35227792 29.23271209 23.8125 24.3125 C25.57066682 20.88870146 25.77565806 17.70750322 25 14 C23.02321824 10.47814744 20.9012851 8.30042837 17 7 C14.03 7 11.06 7 8 7 Z " fill="#2F2F2F" transform="translate(1,427)"/>
<path d="M0 0 C8.91 0 17.82 0 27 0 C27 2.31 27 4.62 27 7 C20.73 7 14.46 7 8 7 C8 9.64 8 12.28 8 15 C14.27 15 20.54 15 27 15 C27 17.31 27 19.62 27 22 C20.73 22 14.46 22 8 22 C8 24.31 8 26.62 8 29 C14.27 29 20.54 29 27 29 C27 31.31 27 33.62 27 36 C18.09 36 9.18 36 0 36 C0 24.12 0 12.24 0 0 Z " fill="#2F2F2F" transform="translate(128,477)"/>
<path d="M0 0 C10.63793103 0 10.63793103 0 14.5625 0.375 C15.74005859 0.47941406 15.74005859 0.47941406 16.94140625 0.5859375 C19 1 19 1 21 3 C21.639375 2.484375 22.27875 1.96875 22.9375 1.4375 C27.1634952 -0.5461304 30.56138969 -0.3689172 35 1 C38.01460306 3.78850783 39.21456005 6.04722344 40 10 C40.06926968 12.75970408 40.0941736 15.49196042 40.0625 18.25 C40.05798828 18.99507813 40.05347656 19.74015625 40.04882812 20.5078125 C40.03709246 22.3385764 40.0191585 24.16929873 40 26 C37.69 26 35.38 26 33 26 C32.93941406 24.86820312 32.87882812 23.73640625 32.81640625 22.5703125 C32.73200083 21.08852855 32.64735283 19.6067584 32.5625 18.125 C32.52318359 17.37863281 32.48386719 16.63226563 32.44335938 15.86328125 C32.28426376 11.80013136 32.28426376 11.80013136 31 8 C29.33388095 7.957279 27.66617115 7.95936168 26 8 C23.88074396 10.11925604 24.58168983 14.6196093 24.4375 17.5625 C24.39431641 18.36880859 24.35113281 19.17511719 24.30664062 20.00585938 C24.20024738 22.00368805 24.09959112 24.0018207 24 26 C21.69 26 19.38 26 17 26 C16.93941406 24.86820312 16.87882812 23.73640625 16.81640625 22.5703125 C16.73200083 21.08852855 16.64735283 19.6067584 16.5625 18.125 C16.52318359 17.37863281 16.48386719 16.63226563 16.44335938 15.86328125 C16.28426376 11.80013136 16.28426376 11.80013136 15 8 C13.02 8 11.04 8 9 8 C7.414131 11.171738 7.62133555 14.63513822 7.4375 18.125 C7.39431641 18.87910156 7.35113281 19.63320313 7.30664062 20.41015625 C7.2005168 22.27321888 7.09974999 24.13658524 7 26 C4.69 26 2.38 26 0 26 C0 17.42 0 8.84 0 0 Z " fill="#2F2F2F" transform="translate(302,487)"/>
<path d="M0 0 C10.63793103 0 10.63793103 0 14.5625 0.375 C15.74005859 0.47941406 15.74005859 0.47941406 16.94140625 0.5859375 C19 1 19 1 21 3 C21.639375 2.484375 22.27875 1.96875 22.9375 1.4375 C27.1634952 -0.5461304 30.56138969 -0.3689172 35 1 C38.01460306 3.78850783 39.21456005 6.04722344 40 10 C40.06926968 12.75970408 40.0941736 15.49196042 40.0625 18.25 C40.05798828 18.99507813 40.05347656 19.74015625 40.04882812 20.5078125 C40.03709246 22.3385764 40.0191585 24.16929873 40 26 C37.69 26 35.38 26 33 26 C32.93941406 24.86820312 32.87882812 23.73640625 32.81640625 22.5703125 C32.73200083 21.08852855 32.64735283 19.6067584 32.5625 18.125 C32.52318359 17.37863281 32.48386719 16.63226563 32.44335938 15.86328125 C32.28426376 11.80013136 32.28426376 11.80013136 31 8 C29.33388095 7.957279 27.66617115 7.95936168 26 8 C23.88074396 10.11925604 24.58168983 14.6196093 24.4375 17.5625 C24.39431641 18.36880859 24.35113281 19.17511719 24.30664062 20.00585938 C24.20024738 22.00368805 24.09959112 24.0018207 24 26 C21.69 26 19.38 26 17 26 C16.93941406 24.86820312 16.87882812 23.73640625 16.81640625 22.5703125 C16.73200083 21.08852855 16.64735283 19.6067584 16.5625 18.125 C16.52318359 17.37863281 16.48386719 16.63226563 16.44335938 15.86328125 C16.28426376 11.80013136 16.28426376 11.80013136 15 8 C13.02 8 11.04 8 9 8 C7.414131 11.171738 7.62133555 14.63513822 7.4375 18.125 C7.39431641 18.87910156 7.35113281 19.63320313 7.30664062 20.41015625 C7.2005168 22.27321888 7.09974999 24.13658524 7 26 C4.69 26 2.38 26 0 26 C0 17.42 0 8.84 0 0 Z " fill="#2F2F2F" transform="translate(159,487)"/>
<path d="M0 0 C1.98 0 3.96 0 6 0 C6.33 0.66 6.66 1.32 7 2 C7.99 1.34 8.98 0.68 10 0 C14.66510697 -0.50707684 17.18706566 0.30851694 21 3 C21.515625 2.505 22.03125 2.01 22.5625 1.5 C25.9129075 -0.56178923 28.12391554 -0.40800889 32 0 C35.82656549 1.70069577 37.45217779 3.15504735 39 7 C39.22705078 9.19824219 39.22705078 9.19824219 39.1953125 11.546875 C39.18886719 12.39121094 39.18242187 13.23554688 39.17578125 14.10546875 C39.15902344 14.97816406 39.14226562 15.85085938 39.125 16.75 C39.11597656 17.63816406 39.10695312 18.52632813 39.09765625 19.44140625 C39.07414577 21.62788058 39.04128499 23.81380094 39 26 C36.69 26 34.38 26 32 26 C31.67 20.39 31.34 14.78 31 9 C28.525 8.505 28.525 8.505 26 8 C23.06552643 10.93447357 23.53841577 14.18259456 23.375 18.125 C23.33632812 18.87910156 23.29765625 19.63320313 23.2578125 20.41015625 C23.16348969 22.27303184 23.08065338 24.13648255 23 26 C20.69 26 18.38 26 16 26 C15.67 20.39 15.34 14.78 15 9 C13.68 8.34 12.36 7.68 11 7 C10.01 7.66 9.02 8.32 8 9 C7.61615491 11.93597539 7.396157 14.68027373 7.3125 17.625 C7.27833984 18.42679687 7.24417969 19.22859375 7.20898438 20.0546875 C7.12643122 22.03596318 7.06154084 24.01796037 7 26 C4.69 26 2.38 26 0 26 C0 17.42 0 8.84 0 0 Z " fill="#2F2F2F" transform="translate(172,437)"/>
<path d="M0 0 C2.31 0 4.62 0 7 0 C7.33 3.96 7.66 7.92 8 12 C8.99 11.34 9.98 10.68 11 10 C15.18614674 9.39637959 18.93436214 9.58301127 22.875 11.125 C26.05132329 13.9276382 27.6681486 16.72249929 28.28515625 20.95703125 C28.49201794 25.66088631 27.6844024 29.0196792 25 33 C20.59454935 37.00495514 15.59373399 36.25598444 10 36 C9.01 36 8.02 36 7 36 C4.69 36 2.38 36 0 36 C0 24.12 0 12.24 0 0 Z M10.3125 17.625 C7.74692827 19.82146475 7.74692827 19.82146475 7.4375 23 C8.12362013 26.65930734 8.96752586 27.86907223 12 30 C14.5 30.66666667 14.5 30.66666667 17 30 C20.03247414 27.86907223 20.87637987 26.65930734 21.5625 23 C21.25307173 19.82146475 21.25307173 19.82146475 18.6875 17.625 C15.10490875 15.45878203 13.89509125 15.45878203 10.3125 17.625 Z " fill="#2F2F2F" transform="translate(423,427)"/>
<path d="M0 0 C6 0 6 0 9 1 C9.66 0.67 10.32 0.34 11 0 C15.77255923 -0.39771327 18.08482672 -0.47453429 22.375 1.75 C25.59714319 4.51183702 26.76839504 6.38607909 27.37109375 10.5859375 C27.57244881 19.04284983 27.57244881 19.04284983 24.625 22.625 C20.95710008 25.94357612 19.28691418 26.13764515 14.4375 26.125 C13.44621094 26.12757813 12.45492187 26.13015625 11.43359375 26.1328125 C9 26 9 26 8 25 C7.67 28.63 7.34 32.26 7 36 C4.69 36 2.38 36 0 36 C0 24.12 0 12.24 0 0 Z M9.1875 8.25 C7.78795 10.31249474 7.14735516 11.49496229 7 14 C8.33307937 17.18457849 9.1567328 18.64494013 12.375 20 C15.82835871 20 17.35746324 19.20211397 20 17 C21.11703004 14.09572189 21.2453571 12.67945043 20.1875 9.75 C19.10600632 7.84925076 19.10600632 7.84925076 17 7 C12.8495801 6.58427885 12.8495801 6.58427885 9.1875 8.25 Z " fill="#2F2F2F" transform="translate(67,437)"/>
<path d="M0 0 C1.98 0 3.96 0 6 0 C6.33 0.66 6.66 1.32 7 2 C7.99 1.34 8.98 0.68 10 0 C14.18614674 -0.60362041 17.93436214 -0.41698873 21.875 1.125 C25.15652067 4.02045942 26.67975759 6.82078947 27.3203125 11.1796875 C27.59450195 16.60863857 26.62569746 19.75275441 23 24 C19.61877827 26.25414782 18.3935272 26.24544447 14.4375 26.1875 C13.46683594 26.18105469 12.49617187 26.17460938 11.49609375 26.16796875 C9 26 9 26 7 25 C7 28.63 7 32.26 7 36 C4.69 36 2.38 36 0 36 C0 24.12 0 12.24 0 0 Z M8 8.625 C6.63168992 11.87473645 6.9354496 13.66440876 8 17 C9.63450124 19.05945016 9.63450124 19.05945016 12 20 C14.81900839 19.8624874 16.45769347 19.35530428 18.8125 17.8125 C20.58260835 15.11075568 20.39415803 13.15326426 20 10 C19.06402685 7.98048938 19.06402685 7.98048938 17 7 C12.12781356 6.35387532 12.12781356 6.35387532 8 8.625 Z " fill="#2F2F2F" transform="translate(204,487)"/>
<path d="M0 0 C0.99 0.66 1.98 1.32 3 2 C3.33 1.34 3.66 0.68 4 0 C6.31 0 8.62 0 11 0 C11 8.58 11 17.16 11 26 C7.66666667 26 4.33333333 26 1 26 C-0.0725 26.226875 -1.145 26.45375 -2.25 26.6875 C-6.773835 27.06448625 -9.0624421 26.19594575 -13 24 C-16.64589084 20.11104977 -17.3081022 16.34825944 -17.2109375 11.0625 C-16.87611578 7.78868761 -15.87371643 5.68566021 -14 3 C-9.29444733 -0.28294372 -5.5402769 -0.45412106 0 0 Z M-8.4375 7.5625 C-10.44543026 10.69487121 -10.60975382 12.34147708 -10 16 C-8.5 18.5 -8.5 18.5 -6 20 C-2.79581126 20.45774125 -0.93062552 20.60972017 1.8125 18.8125 C3.36927163 16.43637488 3.8643141 14.84940381 4 12 C3.15254366 9.14298293 3.15254366 9.14298293 1 7 C-2.93867553 5.7825912 -4.90129253 5.29570034 -8.4375 7.5625 Z " fill="#2F2F2F" transform="translate(409,437)"/>
<path d="M0 0 C1.9375 1.75 1.9375 1.75 3.9375 5.75 C3.9375 8.72 3.9375 11.69 3.9375 14.75 C-2.0025 14.75 -7.9425 14.75 -14.0625 14.75 C-13.4025 15.74 -12.7425 16.73 -12.0625 17.75 C-8.34618976 17.98976195 -5.31124208 18.12124765 -1.75 17.0625 C-1.193125 16.959375 -0.63625 16.85625 -0.0625 16.75 C1.6875 18.1875 1.6875 18.1875 2.9375 19.75 C2.375 21.625 2.375 21.625 0.9375 23.75 C-4.4561864 26.06157989 -9.44435854 26.20460323 -15.0625 24.75 C-18.10285523 22.93872454 -19.60319457 21.53738074 -21.375 18.5 C-22.7162279 13.1350884 -22.90513273 8.77446342 -20.3125 3.875 C-15.55247426 -2.73614686 -7.25422621 -2.96090866 0 0 Z M-14.0625 6.75 C-14.0625 7.41 -14.0625 8.07 -14.0625 8.75 C-10.4325 8.75 -6.8025 8.75 -3.0625 8.75 C-3.7225 7.43 -4.3825 6.11 -5.0625 4.75 C-9.8522321 4.51571687 -9.8522321 4.51571687 -14.0625 6.75 Z " fill="#2F2F2F" transform="translate(368.0625,488.25)"/>
<path d="M0 0 C1.14662109 -0.00773437 1.14662109 -0.00773437 2.31640625 -0.015625 C4.4375 0.25 4.4375 0.25 7.4375 2.25 C7.7675 1.59 8.0975 0.93 8.4375 0.25 C10.4175 0.25 12.3975 0.25 14.4375 0.25 C14.4375 8.83 14.4375 17.41 14.4375 26.25 C12.4575 26.25 10.4775 26.25 8.4375 26.25 C8.4375 25.59 8.4375 24.93 8.4375 24.25 C7.468125 24.78625 6.49875 25.3225 5.5 25.875 C0.87006566 27.86060192 -2.97487144 27.07795258 -7.5625 25.25 C-10.5201473 22.95782334 -11.37847278 21.80208165 -12.5625 18.25 C-13.09279448 13.19916241 -13.11012715 9.34525429 -10.8125 4.75 C-7.5177597 1.08917745 -4.90217354 -0.03317884 0 0 Z M-5.5625 10.25 C-5.98769574 13.71230815 -6.20152633 16.0847167 -4.5 19.1875 C-1.44273824 20.8640629 1.0281288 20.61528977 4.4375 20.25 C6.52083333 19.33333333 6.52083333 19.33333333 7.4375 17.25 C7.942458 13.2824729 8.05604451 11.14345318 5.75 7.8125 C3.54153273 6.10332941 3.54153273 6.10332941 0.9375 5.75 C-2.46774375 6.43104875 -3.58797983 7.3979153 -5.5625 10.25 Z " fill="#2F2F2F" transform="translate(109.5625,436.75)"/>
<path d="M0 0 C3.25204941 1.79194559 4.50298243 3.12430237 6.3125 6.3125 C7 9 7 9 7 16 C1.06 16.33 -4.88 16.66 -11 17 C-11 17.66 -11 18.32 -11 19 C-9.58344207 19.0272415 -8.16672955 19.04650467 -6.75 19.0625 C-5.96109375 19.07410156 -5.1721875 19.08570313 -4.359375 19.09765625 C-2.00237148 19.08747183 -2.00237148 19.08747183 0.1875 18.40625 C0.785625 18.2721875 1.38375 18.138125 2 18 C3.75 19.4375 3.75 19.4375 5 21 C4.00827903 23.97516292 3.27035683 24.86152455 0.4375 26.3125 C-4.52489326 27.30497865 -9.3924729 27.55365157 -13.875 24.8828125 C-17.0615475 22.29374266 -18.84297437 20.49847311 -19.2734375 16.390625 C-19.58141889 6.86689287 -19.58141889 6.86689287 -16.6875 3.3125 C-11.77369517 -0.91565764 -6.21808559 -0.65549365 0 0 Z M-9 6 C-10.485 7.98 -10.485 7.98 -12 10 C-8.04 10 -4.08 10 0 10 C-0.33 9.01 -0.66 8.02 -1 7 C-3.82883747 5.58558126 -5.87376745 5.68099668 -9 6 Z " fill="#2F2F2F" transform="translate(235,437)"/>
<path d="M0 0 C3.25204941 1.79194559 4.50298243 3.12430237 6.3125 6.3125 C7 9 7 9 7 16 C1.06 16.33 -4.88 16.66 -11 17 C-11 17.66 -11 18.32 -11 19 C-9.58344207 19.0272415 -8.16672955 19.04650467 -6.75 19.0625 C-5.96109375 19.07410156 -5.1721875 19.08570313 -4.359375 19.09765625 C-2.00237148 19.08747183 -2.00237148 19.08747183 0.1875 18.40625 C0.785625 18.2721875 1.38375 18.138125 2 18 C3.75 19.4375 3.75 19.4375 5 21 C4.00827903 23.97516292 3.27035683 24.86152455 0.4375 26.3125 C-4.52489326 27.30497865 -9.3924729 27.55365157 -13.875 24.8828125 C-17.0615475 22.29374266 -18.84297437 20.49847311 -19.2734375 16.390625 C-19.58141889 6.86689287 -19.58141889 6.86689287 -16.6875 3.3125 C-11.77369517 -0.91565764 -6.21808559 -0.65549365 0 0 Z M-9 6 C-10.485 7.98 -10.485 7.98 -12 10 C-8.04 10 -4.08 10 0 10 C-0.33 9.01 -0.66 8.02 -1 7 C-3.82883747 5.58558126 -5.87376745 5.68099668 -9 6 Z " fill="#2F2F2F" transform="translate(56,437)"/>
<path d="M0 0 C2.64 0 5.28 0 8 0 C9.98 4.95 11.96 9.9 14 15 C15.98 10.05 17.96 5.1 20 0 C22.64 0 25.28 0 28 0 C25.5797186 7.70538568 22.54317367 15.07459295 19.375 22.5 C18.87226563 23.69109375 18.36953125 24.8821875 17.8515625 26.109375 C14.13225446 34.86774554 14.13225446 34.86774554 13 36 C10.32941149 36.14115161 7.67567762 36.04247107 5 36 C5.48533203 35.07380859 5.48533203 35.07380859 5.98046875 34.12890625 C8.83200495 28.156507 8.83200495 28.156507 8.125 21.8125 C7.44229889 20.19725822 6.72901746 18.59487315 6 17 C5.19736444 15.04603005 4.4146062 13.08480443 3.63427734 11.12182617 C3.09166179 9.7620632 2.54133969 8.40534723 1.98291016 7.05200195 C0 2.21702058 0 2.21702058 0 0 Z " fill="#2F2F2F" transform="translate(272,487)"/>
<path d="M0 0 C5.99963789 4.70241889 5.99963789 4.70241889 6.6640625 9.18359375 C6.82550611 14.12230066 6.70231969 17.95511897 3.3125 21.8125 C-0.56668755 25.221483 -4.36122014 25.27045797 -9.31640625 25.09375 C-12.51848709 24.71393151 -14.29409048 23.98832683 -16.6875 21.8125 C-19.58300431 17.41932104 -20.24628366 14.02781417 -19.6875 8.8125 C-18.08843249 4.65492447 -16.54061765 2.1002886 -12.6875 -0.1875 C-8.21323668 -1.67892111 -4.36835977 -1.93020548 0 0 Z M-10.3125 6.4375 C-12.94405111 8.62200967 -12.94405111 8.62200967 -13.25 11.8125 C-12.56387987 15.47180734 -11.71997414 16.68157223 -8.6875 18.8125 C-5.81226676 19.30339348 -4.39304428 19.22609492 -1.875 17.75 C0.03040602 14.64117965 -0.18891646 12.36490769 -0.6875 8.8125 C-2.93041412 6.3004561 -2.93041412 6.3004561 -5.6875 4.8125 C-7.91862366 4.63704846 -7.91862366 4.63704846 -10.3125 6.4375 Z " fill="#2F2F2F" transform="translate(264.6875,488.1875)"/>
<path d="M0 0 C3.82158012 2.43191462 5.32820787 4.48462362 6.75 8.75 C7.14441267 13.97596788 6.65549127 17.34166842 3.75 21.75 C-0.1169961 25.37530884 -4.51537255 25.30276423 -9.58203125 25.1796875 C-13.76447933 24.50608678 -15.43877547 22.8571429 -18.25 19.75 C-20.21400295 15.8219941 -19.58541968 11.04212962 -19.25 6.75 C-17.87748086 3.08994896 -16.75300759 2.08152773 -13.5 -0.0625 C-8.52671632 -1.87966135 -4.94798487 -1.9030711 0 0 Z M-12.25 7.75 C-13.41977494 10.09872531 -13.41977494 10.09872531 -13.25 12.75 C-12.1084081 15.0331838 -11.05987317 16.94012683 -9.25 18.75 C-5.76944126 18.57432642 -5.76944126 18.57432642 -2.25 17.75 C0.09522935 14.86487022 0.09522935 14.86487022 -0.375 11.25 C-0.93558593 7.73213556 -0.93558593 7.73213556 -3.1875 5.8125 C-7.00265722 3.84711598 -8.96468193 5.30707118 -12.25 7.75 Z " fill="#2F2F2F" transform="translate(473.25,438.25)"/>
<path d="M0 0 C5.99963789 4.70241889 5.99963789 4.70241889 6.6640625 9.18359375 C6.82550611 14.12230066 6.70231969 17.95511897 3.3125 21.8125 C-0.56668755 25.221483 -4.36122014 25.27045797 -9.31640625 25.09375 C-12.51848709 24.71393151 -14.29409048 23.98832683 -16.6875 21.8125 C-19.58300431 17.41932104 -20.24628366 14.02781417 -19.6875 8.8125 C-18.08843249 4.65492447 -16.54061765 2.1002886 -12.6875 -0.1875 C-8.21323668 -1.67892111 -4.36835977 -1.93020548 0 0 Z M-10.3125 6.4375 C-12.94405111 8.62200967 -12.94405111 8.62200967 -13.25 11.8125 C-12.56387987 15.47180734 -11.71997414 16.68157223 -8.6875 18.8125 C-5.81226676 19.30339348 -4.39304428 19.22609492 -1.875 17.75 C0.03040602 14.64117965 -0.18891646 12.36490769 -0.6875 8.8125 C-2.93041412 6.3004561 -2.93041412 6.3004561 -5.6875 4.8125 C-7.91862366 4.63704846 -7.91862366 4.63704846 -10.3125 6.4375 Z " fill="#2F2F2F" transform="translate(322.6875,438.1875)"/>
<path d="M0 0 C2.31 0 4.62 0 7 0 C7.33 0.66 7.66 1.32 8 2 C8.804375 1.505 8.804375 1.505 9.625 1 C12.70340819 -0.29617187 14.67716638 -0.39874003 18 0 C21.56763369 1.78381684 23.52920494 2.93834135 25.1640625 6.625 C26.16018497 10.64672812 26.22182561 14.2561875 26.125 18.375 C26.11597656 19.11105469 26.10695313 19.84710938 26.09765625 20.60546875 C26.07430144 22.4037888 26.03843836 24.20193911 26 26 C23.69 26 21.38 26 19 26 C18.93941406 24.86820312 18.87882812 23.73640625 18.81640625 22.5703125 C18.73200083 21.08852855 18.64735283 19.6067584 18.5625 18.125 C18.52318359 17.37863281 18.48386719 16.63226563 18.44335938 15.86328125 C18.28426376 11.80013136 18.28426376 11.80013136 17 8 C14.67975596 6.98546047 14.67975596 6.98546047 12 7 C9.71603916 8.46286683 9.71603916 8.46286683 8 11 C7.5509984 13.70552245 7.30630366 16.04230591 7.25 18.75 C7.22035156 19.44738281 7.19070312 20.14476562 7.16015625 20.86328125 C7.08981542 22.57490813 7.04260054 24.28745815 7 26 C4.69 26 2.38 26 0 26 C0 17.42 0 8.84 0 0 Z " fill="#2F2F2F" transform="translate(245,437)"/>
<path d="M0 0 C1.98 0 3.96 0 6 0 C6 0.66 6 1.32 6 2 C7.0209375 1.505 7.0209375 1.505 8.0625 1 C12.64461517 -0.55986899 16.35350764 -0.73177438 20.8125 1.25 C23.16373682 3.13098946 23.89080357 4.24463977 25 7 C25.22705078 9.19824219 25.22705078 9.19824219 25.1953125 11.546875 C25.18886719 12.39121094 25.18242187 13.23554688 25.17578125 14.10546875 C25.15902344 14.97816406 25.14226562 15.85085938 25.125 16.75 C25.11597656 17.63816406 25.10695313 18.52632813 25.09765625 19.44140625 C25.07414577 21.62788058 25.04128499 23.81380094 25 26 C23.02 26 21.04 26 19 26 C18.97421875 24.96359375 18.9484375 23.9271875 18.921875 22.859375 C18.86558049 21.48954199 18.80823345 20.11975195 18.75 18.75 C18.73582031 18.06808594 18.72164063 17.38617188 18.70703125 16.68359375 C18.53447223 13.12887794 18.2454103 11.29786441 15.953125 8.515625 C15.30859375 8.01546875 14.6640625 7.5153125 14 7 C10.75016865 8.08784968 10.75016865 8.08784968 8 10 C7.76321284 12.69235776 7.57801975 15.36498156 7.4375 18.0625 C7.39431641 18.82111328 7.35113281 19.57972656 7.30664062 20.36132812 C7.20026367 22.24065438 7.09960066 24.12030244 7 26 C4.69 26 2.38 26 0 26 C0 17.42 0 8.84 0 0 Z " fill="#2E2E2E" transform="translate(376,487)"/>
<path d="M0 0 C2.31 0 4.62 0 7 0 C7 9.57 7 19.14 7 29 C12.94 29 18.88 29 25 29 C25 31.31 25 33.62 25 36 C16.75 36 8.5 36 0 36 C0 24.12 0 12.24 0 0 Z " fill="#2E2E2E" transform="translate(364,427)"/>
<path d="M0 0 C0.66 0.33 1.32 0.66 2 1 C1.625 3.4375 1.625 3.4375 1 6 C-1.46278801 7.231394 -3.2795055 7.07159196 -6 7 C-6.33 8.32 -6.66 9.64 -7 11 C-4.69 11 -2.38 11 0 11 C0 12.98 0 14.96 0 17 C-2.31 17 -4.62 17 -7 17 C-7 23.27 -7 29.54 -7 36 C-9.31 36 -11.62 36 -14 36 C-14 29.73 -14 23.46 -14 17 C-15.65 17 -17.3 17 -19 17 C-19 15.02 -19 13.04 -19 11 C-17.35 11 -15.7 11 -14 11 C-14.103125 10.113125 -14.20625 9.22625 -14.3125 8.3125 C-14 5 -14 5 -12.0625 2.125 C-8.00398478 -0.6911126 -4.80734452 -0.66112793 0 0 Z " fill="#2F2F2F" transform="translate(349,427)"/>
<path d="M0 0 C2.31 0 4.62 0 7 0 C7 2.31 7 4.62 7 7 C9.31 7 11.62 7 14 7 C14 8.98 14 10.96 14 13 C11.69 13 9.38 13 7 13 C7.33 16.63 7.66 20.26 8 24 C9.98 24.66 11.96 25.32 14 26 C14.38218767 27.65614657 14.71395102 29.32457024 15 31 C13.43058802 32.56941198 11.85865006 32.2449847 9.6875 32.3125 C6.31829225 32.28036129 5.30470021 32.22090765 2.5 30.1875 C-0.10913384 26.38251315 -0.1108221 23.30645526 -0.0625 18.8125 C-0.05347656 17.72582031 -0.04445313 16.63914062 -0.03515625 15.51953125 C-0.02355469 14.68808594 -0.01195312 13.85664063 0 13 C-1.32 13 -2.64 13 -4 13 C-4 11.02 -4 9.04 -4 7 C-2.68 7 -1.36 7 0 7 C0 4.69 0 2.38 0 0 Z " fill="#2F2F2F" transform="translate(407,481)"/>
<path d="M0 0 C2.31 0 4.62 0 7 0 C7 2.31 7 4.62 7 7 C9.31 7 11.62 7 14 7 C14 8.98 14 10.96 14 13 C11.69 13 9.38 13 7 13 C7.33 16.63 7.66 20.26 8 24 C9.98 24.66 11.96 25.32 14 26 C14.38218767 27.65614657 14.71395102 29.32457024 15 31 C13.43058802 32.56941198 11.85865006 32.2449847 9.6875 32.3125 C6.31829225 32.28036129 5.30470021 32.22090765 2.5 30.1875 C-0.10913384 26.38251315 -0.1108221 23.30645526 -0.0625 18.8125 C-0.05347656 17.72582031 -0.04445312 16.63914062 -0.03515625 15.51953125 C-0.02355469 14.68808594 -0.01195312 13.85664063 0 13 C-1.32 13 -2.64 13 -4 13 C-4 11.02 -4 9.04 -4 7 C-2.68 7 -1.36 7 0 7 C0 4.69 0 2.38 0 0 Z " fill="#2F2F2F" transform="translate(154,431)"/>
<path d="M0 0 C1.98 0 3.96 0 6 0 C6 2.31 6 4.62 6 7 C8.31 7 10.62 7 13 7 C13 8.98 13 10.96 13 13 C10.69 13 8.38 13 6 13 C6.33 16.63 6.66 20.26 7 24 C10.63619656 25.08084521 10.63619656 25.08084521 13 25 C13.38133299 26.9914056 13.71325582 28.99279077 14 31 C12.43058802 32.56941198 10.85865006 32.2449847 8.6875 32.3125 C7.51767578 32.36857422 7.51767578 32.36857422 6.32421875 32.42578125 C2.99399212 31.81570612 1.93370354 30.76681844 0 28 C-0.2911521 25.26317029 -0.38322418 22.96059961 -0.25 20.25 C-0.23195313 19.55261719 -0.21390625 18.85523438 -0.1953125 18.13671875 C-0.14838554 16.42388461 -0.07664605 14.71176176 0 13 C-1.65 13 -3.3 13 -5 13 C-5 11.02 -5 9.04 -5 7 C-3.35 7 -1.7 7 0 7 C0 4.69 0 2.38 0 0 Z " fill="#2F2F2F" transform="translate(277,431)"/>
<path d="M0 0 C1.546875 0.0309375 1.546875 0.0309375 3.125 0.0625 C5.29176682 0.0625 7.45857856 0.0386861 9.625 0 C13.125 0.0625 13.125 0.0625 16.125 1.0625 C15.795 3.0425 15.465 5.0225 15.125 7.0625 C12.125 8.0625 12.125 8.0625 9.0625 8 C5.99996819 7.72626157 5.99996819 7.72626157 4.125 10.0625 C3.8186141 12.79684962 3.6136664 15.44529821 3.5 18.1875 C3.46132813 18.94160156 3.42265625 19.69570313 3.3828125 20.47265625 C3.28848969 22.33553184 3.20565338 24.19898255 3.125 26.0625 C0.815 26.0625 -1.495 26.0625 -3.875 26.0625 C-3.90386751 21.91668113 -3.92175327 17.77088784 -3.9375 13.625 C-3.94587891 12.44099609 -3.95425781 11.25699219 -3.96289062 10.03710938 C-3.96611328 8.91240234 -3.96933594 7.78769531 -3.97265625 6.62890625 C-3.97789307 5.58677979 -3.98312988 4.54465332 -3.98852539 3.47094727 C-3.82245594 -0.05222513 -3.57270883 0.07766758 0 0 Z " fill="#2F2F2F" transform="translate(486.875,436.9375)"/>
<path d="M0 0 C2.31 0 4.62 0 7 0 C7 11.88 7 23.76 7 36 C4.69 36 2.38 36 0 36 C0 24.12 0 12.24 0 0 Z " fill="#2F2F2F" transform="translate(235,477)"/>
<path d="M0 0 C0.86625 0.020625 1.7325 0.04125 2.625 0.0625 C4.27120877 0.0625 5.91872486 0.04651095 7.5625 -0.04296875 C13.18615108 -0.26663669 13.18615108 -0.26663669 15.625 1.5625 C15.955 2.0575 16.285 2.5525 16.625 3.0625 C15.625 5.5625 15.625 5.5625 13.625 8.0625 C11.71484375 8.2890625 11.71484375 8.2890625 9.5625 8.1875 C8.263125 8.14625 6.96375 8.105 5.625 8.0625 C3.22380941 11.66428588 3.18728678 14.57116369 3 18.75 C2.96132812 19.45189453 2.92265625 20.15378906 2.8828125 20.87695312 C2.7887666 22.60504655 2.7058032 24.33373675 2.625 26.0625 C0.645 26.0625 -1.335 26.0625 -3.375 26.0625 C-3.40386751 21.91668113 -3.42175327 17.77088784 -3.4375 13.625 C-3.44587891 12.44099609 -3.45425781 11.25699219 -3.46289062 10.03710938 C-3.46611328 8.91240234 -3.46933594 7.78769531 -3.47265625 6.62890625 C-3.47789307 5.58677979 -3.48312988 4.54465332 -3.48852539 3.47094727 C-3.33638579 0.24329755 -3.23220432 0.08505801 0 0 Z " fill="#2F2F2F" transform="translate(132.375,436.9375)"/>
<path d="M0 0 C1.40716594 5.62866375 -0.50528813 7.8593816 -3 13 C-11.415 13.495 -11.415 13.495 -20 14 C-19.67 14.66 -19.34 15.32 -19 16 C-21.475 15.01 -21.475 15.01 -24 14 C-24 13.01 -24 12.02 -24 11 C-17.07 11 -10.14 11 -3 11 C-2.01 7.37 -1.02 3.74 0 0 Z " fill="#FADB70" transform="translate(247,204)"/>
<path d="M0 0 C6.93 0 13.86 0 21 0 C21 0.99 21 1.98 21 3 C18 5.1875 18 5.1875 15 7 C14.34 6.67 13.68 6.34 13 6 C13.66 4.68 14.32 3.36 15 2 C10.05 2 5.1 2 0 2 C0 1.34 0 0.68 0 0 Z " fill="#F7D550" transform="translate(215,289)"/>
<path d="M0 0 C1.10191901 4.40767604 0.58706842 5.8922935 -1 10 C-0.01 9.34 0.98 8.68 2 8 C2.99 8.99 3.98 9.98 5 11 C3.90554162 11.86657116 2.79902219 12.71792724 1.6875 13.5625 C1.07261719 14.03816406 0.45773438 14.51382812 -0.17578125 15.00390625 C-0.77777344 15.33261719 -1.37976563 15.66132813 -2 16 C-2.99 15.67 -3.98 15.34 -5 15 C-3.35 10.05 -1.7 5.1 0 0 Z " fill="#FAD64C" transform="translate(196,306)"/>
<path d="M0 0 C0 4.0479181 -1.49297679 5.04613442 -4.1875 8 C-4.96480469 8.86625 -5.74210937 9.7325 -6.54296875 10.625 C-8.91897467 12.92167981 -11.02905184 14.56196123 -14 16 C-14.66 15.67 -15.32 15.34 -16 15 C-14.64455078 13.75283203 -14.64455078 13.75283203 -13.26171875 12.48046875 C-12.07028184 11.38284577 -10.87887729 10.28518768 -9.6875 9.1875 C-9.09259766 8.64029297 -8.49769531 8.09308594 -7.88476562 7.52929688 C-7.30791016 6.99755859 -6.73105469 6.46582031 -6.13671875 5.91796875 C-5.60780029 5.43094482 -5.07888184 4.9439209 -4.53393555 4.44213867 C-2.9907165 2.99127207 -1.48984144 1.50546232 0 0 Z " fill="#E27B76" transform="translate(322,335)"/>
<path d="M0 0 C1.65 0 3.3 0 5 0 C5.268125 0.969375 5.53625 1.93875 5.8125 2.9375 C6.204375 3.948125 6.59625 4.95875 7 6 C7.99 6.33 8.98 6.66 10 7 C10.33 8.98 10.66 10.96 11 13 C6.78185183 9.0299782 3.38772897 4.69159716 0 0 Z " fill="#EB413F" transform="translate(318,204)"/>
<path d="M0 0 C1.09375 3.7421875 1.09375 3.7421875 0.25 6.0625 C-0.995484 7.9930002 -2.38285151 9.38285151 -4 11 C-4.33 11.99 -4.66 12.98 -5 14 C-5.66 14 -6.32 14 -7 14 C-5.53967505 8.68972746 -3.01679014 4.53669968 0 0 Z " fill="#EF4F4B" transform="translate(319,182)"/>
<path d="M0 0 C-0.0928125 1.3303125 -0.0928125 1.3303125 -0.1875 2.6875 C0.02152794 6.38032702 1.08700341 7.9225707 3 11 C2.67 11.99 2.34 12.98 2 14 C0.99491199 12.21118264 -0.00392736 10.41885304 -1 8.625 C-1.8353125 7.12839844 -1.8353125 7.12839844 -2.6875 5.6015625 C-4 3 -4 3 -4 1 C-2 0 -2 0 0 0 Z " fill="#EF4548" transform="translate(335,219)"/>
<path d="M0 0 C1.90318884 2.85478326 2.4619099 4.41941308 3.125 7.6875 C3.29257812 8.49574219 3.46015625 9.30398437 3.6328125 10.13671875 C3.75398438 10.75160156 3.87515625 11.36648437 4 12 C2.046875 11.1328125 2.046875 11.1328125 0 10 C-0.75 7.875 -0.75 7.875 -1 6 C-0.34 6 0.32 6 1 6 C0.67 4.02 0.34 2.04 0 0 Z " fill="#F9D85C" transform="translate(264,237)"/>
<path d="M0 0 C1 4 1 4 -0.21484375 6.359375 C-0.78332031 7.14828125 -1.35179687 7.9371875 -1.9375 8.75 C-2.50339844 9.54921875 -3.06929687 10.3484375 -3.65234375 11.171875 C-4.09707031 11.77515625 -4.54179687 12.3784375 -5 13 C-5.66 12.67 -6.32 12.34 -7 12 C-4.69 8.04 -2.38 4.08 0 0 Z " fill="#4245BD" transform="translate(136,197)"/>
<path d="M0 0 C2.18043828 2.18043828 2.56240225 3.02433527 3 6 C2.5625 8.25 2.5625 8.25 2 10 C0.68 9.67 -0.64 9.34 -2 9 C-2 7.68 -2 6.36 -2 5 C-1.34 4.67 -0.68 4.34 0 4 C0 2.68 0 1.36 0 0 Z " fill="#FBC309" transform="translate(250,198)"/>
<path d="M0 0 C0.66 0 1.32 0 2 0 C2.66 1.65 3.32 3.3 4 5 C2.35 4.67 0.7 4.34 -1 4 C-1.33 5.32 -1.66 6.64 -2 8 C-2.66 8 -3.32 8 -4 8 C-2.25 2.25 -2.25 2.25 0 0 Z " fill="#ED504A" transform="translate(337,152)"/>
<path d="M0 0 C0.33 0.66 0.66 1.32 1 2 C0.0625 4.625 0.0625 4.625 -1 7 C-1.66 7 -2.32 7 -3 7 C-3.33 8.65 -3.66 10.3 -4 12 C-4.66 12 -5.32 12 -6 12 C-4.68139111 7.38486888 -2.78644563 3.90102388 0 0 Z " fill="#ED5958" transform="translate(211,370)"/>
<path d="M0 0 C2.12508244 3.18762365 2.5020163 5.26512223 3 9 C-0.26954202 8.43628586 -1.82575883 7.50037734 -4 5 C-3.34 5 -2.68 5 -2 5 C-1.67 4.01 -1.34 3.02 -1 2 C-0.67 2.66 -0.34 3.32 0 4 C0 2.68 0 1.36 0 0 Z " fill="#F9E06E" transform="translate(306,313)"/>
<path d="M0 0 C5.94 0 11.88 0 18 0 C18 0.33 18 0.66 18 1 C15.72926348 1.16798051 13.45840707 1.33434113 11.1875 1.5 C9.29064453 1.63921875 9.29064453 1.63921875 7.35546875 1.78125 C5.24021483 1.91914781 3.11974408 2 1 2 C0.67 1.34 0.34 0.68 0 0 Z " fill="#FCBE01" transform="translate(226,217)"/>
<path d="M0 0 C0.6875 1.6875 0.6875 1.6875 1 4 C-0.25 6.6875 -0.25 6.6875 -2 9 C-2.99 9.33 -3.98 9.66 -5 10 C-3.66511872 6.40608886 -2.03977277 3.24509304 0 0 Z " fill="#EE5656" transform="translate(197,394)"/>
<path d="M0 0 C1 4 1 4 0 7 C0.99 7.33 1.98 7.66 3 8 C0 10 0 10 -3 10 C-2.01 6.7 -1.02 3.4 0 0 Z " fill="#F9D95E" transform="translate(277,312)"/>
<path d="M0 0 C0.6875 1.6875 0.6875 1.6875 1 4 C-0.3125 6.75 -0.3125 6.75 -2 9 C-2.66 9 -3.32 9 -4 9 C-2.94124926 5.59687262 -1.99097846 2.98646769 0 0 Z " fill="#4245BA" transform="translate(64,322)"/>
<path d="M0 0 C1 2 1 2 0.3125 4.4375 C-1.10829685 7.21143671 -2.39746148 8.35172561 -5 10 C-3.84414715 6.08788267 -2.64465038 3.1254959 0 0 Z " fill="#EC6262" transform="translate(332,160)"/>
<path d="M0 0 C0.66 0.99 1.32 1.98 2 3 C1.01 4.485 1.01 4.485 0 6 C-0.66 6 -1.32 6 -2 6 C-2 6.99 -2 7.98 -2 9 C-2.66 9 -3.32 9 -4 9 C-2.94124926 5.59687262 -1.99097846 2.98646769 0 0 Z " fill="#484ABE" transform="translate(201,84)"/>
<path d="M0 0 C0.66 0.33 1.32 0.66 2 1 C0.52307692 5.67692308 0.52307692 5.67692308 -2.125 7.3125 C-3.053125 7.6528125 -3.053125 7.6528125 -4 8 C-2.87548273 5.0280615 -1.77706209 2.66559313 0 0 Z " fill="#5153C0" transform="translate(206,76)"/>
<path d="M0 0 C1.77706209 2.66559313 2.87548273 5.0280615 4 8 C2.35 7.67 0.7 7.34 -1 7 C-0.67 4.69 -0.34 2.38 0 0 Z " fill="#F04744" transform="translate(413,281)"/>
<path d="M0 0 C0.6875 1.75 0.6875 1.75 1 4 C-0.3125 6.25 -0.3125 6.25 -2 8 C-2.66 8 -3.32 8 -4 8 C-2.25 2.25 -2.25 2.25 0 0 Z " fill="#5354C2" transform="translate(171,137)"/>
<path d="M0 0 C2.79872437 2.52788007 4.45773019 4.20411134 5 8 C4.01 7.67 3.02 7.34 2 7 C2 6.34 2 5.68 2 5 C1.34 5 0.68 5 0 5 C0 3.35 0 1.7 0 0 Z " fill="#ED5958" transform="translate(475,390)"/>
<path d="M0 0 C0.99 0.33 1.98 0.66 3 1 C0.69 2.65 -1.62 4.3 -4 6 C-4.66 5.67 -5.32 5.34 -6 5 C-1.60546875 0.99609375 -1.60546875 0.99609375 0 0 Z " fill="#E83B3A" transform="translate(312,345)"/>
<path d="M0 0 C0.33 0 0.66 0 1 0 C1 1.65 1 3.3 1 5 C1.66 5.33 2.32 5.66 3 6 C1.35 6.66 -0.3 7.32 -2 8 C-1.47731534 5.23723823 -0.89130413 2.6739124 0 0 Z " fill="#FADE73" transform="translate(235,241)"/>
</svg>
